<?xml version="1.0" encoding="utf-8"?>
<!-- Generator: Adobe Illustrator 23.0.3, SVG Export Plug-In . SVG Version: 6.00 Build 0)  -->
<svg version="1.1" id="Layer_1" xmlns="http://www.w3.org/2000/svg" xmlns:xlink="http://www.w3.org/1999/xlink" x="0px" y="0px"
	 viewBox="0 0 283.4 225.6" style="enable-background:new 0 0 283.4 225.6;" xml:space="preserve">
<style type="text/css">
	.st0{fill:#58CC02;}
	.st1{fill:#E09000;}
	.st2{fill:#89E219;}
	.st3{fill:#B66E28;}
	.st4{fill:#FFC200;}
	.st5{fill:#FFDE00;}
	.st6{fill:#FFFFFF;}
	.st7{fill:#122431;}
</style>
<g>
	<path class="st0" d="M246.2,192.2c0-10.6,8-18,18.6-18s18.6,7.5,18.6,18c0,10.4-8,18-18.6,18S246.2,202.6,246.2,192.2z
		 M272.8,192.2c0-5-3.1-8.6-8-8.6s-8,3.6-8,8.6s3.1,8.6,8,8.6C269.7,200.8,272.8,197.2,272.8,192.2z M239.1,183.8
		c0.7,1.4,1,2.9,1,4.5c0,3.9-2,7.3-5.2,10.1c4.4,2.2,7,7.2,7,12.1c0,9.1-7.3,15.1-18.4,15.1s-18.4-6-18.4-15.1c0-4.9,2.6-9.9,7-12.1
		c-3.3-2.8-5.2-6.2-5.2-10.1c0-7.9,6.2-13.8,16-13.8c5.8,0,7.5,1,10.8,1c2.2,0,3.7-0.3,6.4-1.7c0.9-0.5,1.6-0.7,2.2-0.7
		c1.3,0,2,1.3,2,3C244.4,179.5,242.8,182.5,239.1,183.8z M231.6,210.2c0-4.1-3.1-6.9-8-6.9s-8,2.8-8,6.9c0,3.9,3.4,6.9,8,6.9
		C228.1,217.1,231.6,214,231.6,210.2z M217.2,188.9c0,3.4,2.9,6.2,6.4,6.2c3.6,0,6.4-2.8,6.4-6.2c0-3.7-2.6-6.2-6.4-6.2
		C219.8,182.8,217.2,185.2,217.2,188.9z M200.3,192.8v12.6c0,2.4-0.9,3.5-3.5,3.5h-3.5c-2.6,0-3.5-1-3.5-3.5v-12.3
		c0-3.1-0.5-5.3-1.6-6.8c-1.2-1.5-3-2.3-5.3-2.3c-2.2,0-4.2,0.8-5.5,2.3c-1.2,1.4-2,3.7-2,6.7v12.3c0,2.6-1,3.5-3.5,3.5h-3.5
		c-2.4,0-3.5-0.9-3.5-3.5V177c0-1.6,0.8-2.4,2-2.4c1.8,0,4.3,1.5,6.2,4.4c2.8-3.3,7.1-5,11.3-5c5.1,0,9.2,1.8,11.9,4.9
		C199,182.2,200.3,186.2,200.3,192.8z M145.7,164.5c0-3.2,2.6-5.7,6-5.7c3.2,0,6,2.5,6,5.7c0,3.1-2.8,5.7-6,5.7
		C148.3,170.2,145.7,167.6,145.7,164.5z M146.4,205.4V179c0-2.4,0.9-3.5,3.5-3.5h3.5c2.6,0,3.5,1,3.5,3.5v26.5
		c0,2.4-0.9,3.5-3.5,3.5h-3.5C147.4,208.9,146.4,207.9,146.4,205.4z M128,205.4v-33.2c0-8.3,4.7-13.1,8.5-13.1c1.2,0,2,0.8,2,2.4v44
		c0,2.6-1,3.5-3.5,3.5h-3.5C129,208.9,128,208,128,205.4z M84.7,192.2c0-10.6,8-18,18.6-18s18.6,7.5,18.6,18c0,10.4-8,18-18.6,18
		S84.7,202.6,84.7,192.2z M111.3,192.2c0-5-3.1-8.6-8-8.6s-8,3.6-8,8.6s3.1,8.6,8,8.6S111.3,197.2,111.3,192.2z M79.3,179v28.3
		c0,1.6-0.8,2.4-2,2.4c-1.8,0-4.3-1.5-6.1-4.3c-2.6,3.1-6.6,5-11.1,5s-8.1-1.6-10.8-4.1c-3.1-3-4.8-7.7-4.8-14.4V179
		c0-2.4,0.9-3.5,3.5-3.5h3.5c2.6,0,3.5,1,3.5,3.5v11.9c0,4,0.7,6.2,2,7.6c1.1,1.2,2.7,1.8,4.7,1.8s3.9-0.8,5-2.1c1.3-1.4,2-3.7,2-7
		V179c0-2.6,1-3.5,3.5-3.5h3.5C78.3,175.5,79.3,176.4,79.3,179z M37.4,161.4v45.8c0,1.6-0.8,2.4-2,2.4c-1.8,0-4.3-1.5-6.1-4.3
		c-2.2,2.6-6.7,4.9-11.9,4.9C7,210.2,0,202.5,0,192.2c0-10.2,7.1-18,17.4-18c3.8,0,7.1,1.2,9.6,2.9v-4.9c0-8.3,4.7-13.1,8.5-13.1
		C36.7,159.1,37.4,159.9,37.4,161.4z M26.9,192.2c0-5.2-3.6-8.6-8.1-8.6c-4.6,0-8.2,3.4-8.2,8.6s3.6,8.6,8.2,8.6
		C23.3,200.8,26.9,197.4,26.9,192.2z"/>
	<g>
		<path class="st0" d="M63.4,33.4l76,18.9c4.1,1,6,5.7,3.7,9.3c-10.7,17.1-31.5,25.5-51.6,20.5S57.1,59.9,55.7,39.8
			C55.4,35.6,59.3,32.4,63.4,33.4"/>
		<path class="st0" d="M219.9,33.4l-76,18.9c-4.1,1-6,5.7-3.7,9.3c10.7,17.1,31.5,25.5,51.6,20.5s34.5-22.2,35.9-42.3
			C227.8,35.6,224,32.4,219.9,33.4"/>
		<path class="st1" d="M83.1,112.3L83.1,112.3c2.5-2.7,6.8-2.9,9.5-0.3l7.8,7.3c2.7,2.5,2.9,6.8,0.3,9.5c-2.5,2.7-6.8,2.9-9.5,0.3
			l-7.8-7.3C80.7,119.3,80.6,115,83.1,112.3"/>
		<path class="st1" d="M200.6,112.3L200.6,112.3c-2.5-2.7-6.8-2.9-9.5-0.3l-7.8,7.3c-2.7,2.5-2.9,6.8-0.3,9.5
			c2.5,2.7,6.8,2.9,9.5,0.3l7.8-7.3C203,119.3,203.1,115,200.6,112.3"/>
		<path class="st0" d="M114.1,1.4c13.6,5.8,22.9,8.6,28,8.6c5,0,14.2-2.8,27.5-8.5c8.9-3.8,19.2,0.4,23,9.3c0.9,2.2,1.4,4.5,1.4,6.9
			v54.2c0,28.8-23.4,52.2-52.2,52.2s-52.2-23.4-52.2-52.2V17.6C89.6,7.9,97.5,0,107.2,0C109.6,0.1,111.9,0.5,114.1,1.4"/>
		<path class="st2" d="M176.2,20c-0.2-1.7-0.8-3.3-1.6-4.9c-0.6-1.1-2.1-1.2-2.9-0.3l-3,3.3c0,0-0.1,0-0.1,0c0-2.4-0.6-4.9-1.8-7.1
			c-0.6-1.1-2-1.2-2.9-0.3l-14.4,16c-4.7,3.2-11.4,3-16-0.6l-14.2-15.4c-0.8-0.9-1.9-0.8-2.6,0.3c-1.3,2.4-1.9,5-1.8,7.6
			c0,0,0,0,0,0l-3.4-3.8c-0.9-0.9-2.3-0.8-2.9,0.3c-1,1.8-1.6,3.7-1.7,5.7c-6.1,3.3-10.4,9.7-10.4,17.2v12.6
			c0,10.8,8.7,19.5,19.5,19.5h1.5c8.1,0,15.1-5,18-12c6,0,10.3-0.1,13,0c3,6.9,9.9,11.7,17.9,11.7h1.4c10.8,0,19.5-8.7,19.5-19.5
			V37.6C187.4,29.8,182.8,23.1,176.2,20z M138,88.5c0.2-0.7-0.3-1.3-1-1.3h-13.1c-0.8,0-1.3,0.7-1,1.3c1,3,4,5.1,7.5,5.1
			S137,91.5,138,88.5z M159.9,87.2h-13.1c-0.7,0-1.2,0.7-1,1.3c1,3,4,5.1,7.5,5.1s6.6-2.1,7.6-5.1C161.1,87.8,160.6,87.2,159.9,87.2
			z M148.4,98.3h-13.1c-0.7,0-1.2,0.6-1,1.3c1,3,4,5.1,7.5,5.1s6.6-2.1,7.6-5.1C149.6,98.9,149.1,98.3,148.4,98.3z"/>
		<path class="st1" d="M142,47.5L142,47.5c4.1,0,7.4,3.3,7.4,7.4v12.3c0,4.1-3.3,7.4-7.4,7.4s-7.4-3.3-7.4-7.4V54.9
			C134.7,50.8,138,47.5,142,47.5"/>
		<path class="st3" d="M142,50.4L142,50.4c3.2,0,5.7,2.6,5.7,5.7v8.2c0,3.2-2.6,5.7-5.7,5.7s-5.7-2.6-5.7-5.7v-8.2
			C136.3,52.9,138.9,50.4,142,50.4"/>
		<path class="st4" d="M131.8,53.8c0.9-4.7,5.2-8.3,10.5-8.3c4.8,0,9.1,3.6,9.9,8.3v0.6L142,56.1l-10.2-1.7V53.8z"/>
		<g>
			<path class="st5" d="M144.1,50.2c-0.2,0-0.3,0-0.5-0.1c-1.2-0.4-2.3-0.4-3.5,0c-0.8,0.3-1.6-0.1-1.9-0.9
				c-0.3-0.8,0.1-1.6,0.9-1.9c1.8-0.7,3.7-0.7,5.5,0c0.8,0.3,1.2,1.1,0.9,1.9C145.3,49.8,144.7,50.2,144.1,50.2z"/>
		</g>
		<g>
			<path class="st6" d="M116.3,25.8c-7.9,0-14.4,6.4-14.3,14.3v6.5c8.1,1.6,17.2,4.6,27,8.7c1-2,1.6-4.2,1.6-6.6v-8.6
				C130.6,32.2,124.2,25.8,116.3,25.8z"/>
			<path class="st6" d="M181.3,46.7v-6.6c0-7.9-6.4-14.3-14.3-14.3c-7.9,0-14.3,6.4-14.3,14.3v8.6c0,2.5,0.6,4.8,1.7,6.8
				C164.2,51.4,173.3,48.4,181.3,46.7z"/>
		</g>
		<g>
			<path class="st7" d="M160.2,53.2c3.9-1.5,7.7-2.8,11.3-3.9c0.1-0.3,0.1-0.7,0.1-1.1v-7.4c0-3.8-3.1-6.8-6.8-6.8
				c-1.3,0-2.5,0.3-3.5,0.9c0.7,0.8,1.2,1.8,1.2,3c0,2.4-1.9,4.3-4.3,4.3c-0.1,0-0.1,0-0.2,0v6C158,50.2,158.8,52,160.2,53.2z"/>
			<path class="st7" d="M123.3,53c1.2-1.2,2-2.9,2-4.8v-7.4c0-3.8-3.1-6.8-6.8-6.8c-1,0-2,0.2-2.9,0.7c0.9,0.8,1.5,1.9,1.5,3.2
				c0,2.4-1.9,4.3-4.3,4.3c-0.4,0-0.7-0.1-1.1-0.2v6.2c0,0.3,0,0.5,0.1,0.8C115.5,50.1,119.3,51.5,123.3,53z"/>
		</g>
	</g>
</g>
</svg>
